<svg width="1440" height="223" viewBox="0 0 1440 223" fill="none" xmlns="http://www.w3.org/2000/svg">
<path d="M492.969 0.368652L-438 242.166" stroke="#B2B2B2" stroke-opacity="0.2"/>
<path d="M527.897 0.368652L-100.61 242.166" stroke="#B2B2B2" stroke-opacity="0.2"/>
<path d="M562.824 0.368652L119.603 242.166" stroke="#B2B2B2" stroke-opacity="0.2"/>
<path d="M597.752 0.368652L286.131 242.166" stroke="#B2B2B2" stroke-opacity="0.2"/>
<path d="M632.682 0.368652L424.648 242.166" stroke="#B2B2B2" stroke-opacity="0.2"/>
<path d="M667.608 0.368652L547.9 242.166" stroke="#B2B2B2" stroke-opacity="0.2"/>
<path d="M702.535 0.368652L663.424 242.166" stroke="#B2B2B2" stroke-opacity="0.2"/>
<path d="M737.465 0.368652L776.576 242.166" stroke="#B2B2B2" stroke-opacity="0.2"/>
<path d="M772.393 0.368652L892.101 242.166" stroke="#B2B2B2" stroke-opacity="0.2"/>
<path d="M807.32 0.368652L1015.35 242.166" stroke="#B2B2B2" stroke-opacity="0.2"/>
<path d="M842.25 0.368652L1153.87 242.166" stroke="#B2B2B2" stroke-opacity="0.2"/>
<path d="M877.178 0.368652L1320.4 242.166" stroke="#B2B2B2" stroke-opacity="0.2"/>
<path d="M912.104 0.368652L1540.61 242.166" stroke="#B2B2B2" stroke-opacity="0.2"/>
<path d="M947.031 0.368652L1878 242.166" stroke="#B2B2B2" stroke-opacity="0.2"/>
<path d="M-313.871 204.966H1753.87" stroke="#B2B2B2" stroke-opacity="0.2"/>
<path d="M-251.807 186.365H1691.81" stroke="#B2B2B2" stroke-opacity="0.2"/>
<path d="M-189.74 167.763H1629.74" stroke="#B2B2B2" stroke-opacity="0.2"/>
<path d="M-127.678 149.166H1567.68" stroke="#B2B2B2" stroke-opacity="0.2"/>
<path d="M-65.6112 130.568H1505.61" stroke="#B2B2B2" stroke-opacity="0.2"/>
<path d="M-3.54883 111.966H1443.55" stroke="#B2B2B2" stroke-opacity="0.2"/>
<path d="M58.5177 93.3687H1381.48" stroke="#B2B2B2" stroke-opacity="0.2"/>
<path d="M120.58 74.7671H1319.42" stroke="#B2B2B2" stroke-opacity="0.2"/>
<path d="M182.646 56.1694H1257.36" stroke="#B2B2B2" stroke-opacity="0.2"/>
<path d="M244.709 37.5679H1195.29" stroke="#B2B2B2" stroke-opacity="0.2"/>
<path d="M306.775 18.9663H1133.23" stroke="#B2B2B2" stroke-opacity="0.2"/>
</svg>
