<svg width="36" height="37" viewBox="0 0 36 37" fill="none" xmlns="http://www.w3.org/2000/svg">
<path opacity="0.1" fill-rule="evenodd" clip-rule="evenodd" d="M18.25 35.75C27.915 35.75 35.75 27.915 35.75 18.25C35.75 8.58502 27.915 0.75 18.25 0.75C8.58502 0.75 0.75 8.58502 0.75 18.25C0.75 27.915 8.58502 35.75 18.25 35.75Z" stroke="#F2F5FC" stroke-width="1.5"/>
<path d="M26.2089 26.4498L20.0524 17.4744L20.0629 17.4828L25.6139 11.0498H23.7589L19.2369 16.2858L15.6459 11.0498H10.7809L16.5286 19.4295L16.5279 19.4288L10.4659 26.4498H12.3209L17.3483 20.6244L21.3439 26.4498H26.2089ZM14.9109 12.4498L23.5489 25.0498H22.0789L13.4339 12.4498H14.9109Z" fill="#F2F5FC"/>
</svg>
